<svg xmlns="http://www.w3.org/2000/svg" width="138" height="22" viewBox="0 0 138 22">
  <g id="Group_417" data-name="Group 417" transform="translate(-1302 -53)">
    <path id="noun_avatar_2102861_2_" data-name="noun_avatar_2102861 (2)" d="M23.144,19.823l-4.2-1.723a.594.594,0,0,1-.375-.548V16.57a.557.557,0,0,1,.119-.349,8.265,8.265,0,0,0,1.721-5.03C20.41,8.086,18.437,6,15.5,6s-4.91,2.086-4.91,5.192a8.266,8.266,0,0,0,1.721,5.03.557.557,0,0,1,.119.348v.981a.594.594,0,0,1-.375.548l-4.2,1.723A2.97,2.97,0,0,0,6,22.575v1.634A.792.792,0,0,0,6.792,25H24.208A.792.792,0,0,0,25,24.208V22.575A2.97,2.97,0,0,0,23.144,19.823Zm.273,3.594H7.583v-.842a1.392,1.392,0,0,1,.874-1.287l4.2-1.723a2.172,2.172,0,0,0,1.357-2.013V16.57a2.145,2.145,0,0,0-.468-1.34,6.729,6.729,0,0,1-1.372-4.038c0-2.66,1.718-3.608,3.327-3.608s3.327.948,3.327,3.608a6.729,6.729,0,0,1-1.372,4.038,2.146,2.146,0,0,0-.468,1.34v.981a2.172,2.172,0,0,0,1.357,2.013l4.2,1.723a1.392,1.392,0,0,1,.874,1.287Z" transform="translate(1415 48)"/>
    <g id="noun_cart_2102832_4_" data-name="noun_cart_2102832 (4)" transform="translate(1355 47)">
      <path id="Path_5" data-name="Path 5" d="M6.917,7.833H8.448l2.295,10.355a3.289,3.289,0,0,0-1.871,3.042,3.133,3.133,0,0,0,2.962,3.275H23.988a.917.917,0,1,0,0-1.833H11.833A1.332,1.332,0,0,1,10.7,21.231a1.332,1.332,0,0,1,1.128-1.442H23.988a.917.917,0,0,0,.863-.606l3.1-8.591a.917.917,0,0,0-.863-1.227H10.665l-.586-2.646A.916.916,0,0,0,9.184,6H6.917a.917.917,0,0,0,0,1.833ZM25.779,11.2l-2.435,6.758H12.568l-1.5-6.758H25.779Z"/>
      <path id="Path_6" data-name="Path 6" d="M19.261,50a.917.917,0,0,0,0,1.833h1.164a.917.917,0,1,0,0-1.833Z" transform="translate(-6.687 -23.833)"/>
      <path id="Path_7" data-name="Path 7" d="M37.713,50a.917.917,0,0,0,0,1.833h1.164a.917.917,0,1,0,0-1.833Z" transform="translate(-16.682 -23.833)"/>
    </g>
    <path id="noun_Search_2102816_2_" data-name="noun_Search_2102816 (2)" d="M14.129,22.253a8.109,8.109,0,0,0,5.061-1.768l7.246,7.246a.917.917,0,1,0,1.3-1.3l-7.246-7.246a8.131,8.131,0,1,0-6.357,3.064ZM9.677,9.677a6.3,6.3,0,1,1,0,8.9A6.253,6.253,0,0,1,9.677,9.677Z" transform="translate(1295.996 47)"/>
  </g>
</svg>
